<svg data-v-0dd9719b="" version="1.0" xmlns="http://www.w3.org/2000/svg" xmlns:xlink="http://www.w3.org/1999/xlink" width="100%" height="100%" viewBox="0 0 340.000000 250.000000" preserveAspectRatio="xMidYMid meet" color-interpolation-filters="sRGB" style="margin: auto;"> <rect data-v-0dd9719b="" x="0" y="0" width="100%" height="100%" fill="#ffffff" fill-opacity="1" class="background"></rect> <rect data-v-0dd9719b="" x="0" y="0" width="100%" height="100%" fill="url(#watermark)" fill-opacity="1" class="watermarklayer"></rect> <g data-v-0dd9719b="" fill="#41b883" class="icon-text-wrapper icon-svg-group iconsvg" transform="translate(47.529998779296875,98.62127113342285)"><g class="iconsvg-imagesvg" transform="translate(0,0)"><g><rect fill="#41b883" fill-opacity="0" stroke-width="2" x="0" y="0" width="60" height="52.757456387169384" class="image-rect"></rect> <svg filter="url(#colors4826880034)" x="0" y="0" width="60" height="52.757456387169384" filtersec="colorsf5066821654" class="image-svg-svg primary" style="overflow: visible;"><svg xmlns="http://www.w3.org/2000/svg" viewBox="0.3449374735355377 0.9600000381469727 99.3188247680664 87.33000183105469"><g transform="matrix(.69 0 0 .69 15.5 15.5)"></g><g fill="#333333"><path d="M22.42 65.08l3.42-6.85c.27-.53.24-1.16-.08-1.67-.31-.5-.86-.81-1.46-.81h-7.4l19.4-35.81 17.32 31.5c.3.55.88.89 1.5.89h7.8c.61 0 1.17-.32 1.48-.84.31-.52.32-1.17.02-1.7L37.8 1.84c-.6-1.09-2.39-1.09-2.99 0L.56 63.49c-.29.53-.29 1.18.02 1.7s.87.84 1.48.84H20.9c.64 0 1.23-.37 1.52-.95zM4.96 62.61L36.3 6.2l23.73 42.71h-3.88L37.8 15.54c-.3-.55-.88-.89-1.5-.89-.63 0-1.2.35-1.5.9l-22.26 41.1c-.29.53-.27 1.17.03 1.69.31.52.87.84 1.47.84h7.5l-1.71 3.42H4.96z"></path><path d="M99.44 63.49L65.2 1.84c-.31-.55-.96-.86-1.53-.88-.64.01-1.21.38-1.5.95L53.6 19.03c-.24.48-.24 1.05 0 1.53l3.42 6.85c.58 1.16 2.48 1.16 3.07 0l3.67-7.33 19.32 35.68h-36.5c-.95 0-1.71.77-1.71 1.71v6.85c0 .95.77 1.71 1.71 1.71h51.37c.61 0 1.17-.32 1.48-.84s.31-1.17.01-1.7zm-51.15-.88v-3.42h37.67c.6 0 1.16-.32 1.47-.84a1.7 1.7 0 0 0 .03-1.69L65.2 15.56c-.3-.56-.84-.89-1.53-.9-.64.01-1.22.38-1.5.95l-3.6 7.21-1.51-3.02 6.73-13.45 31.26 56.26H48.29z"></path><path d="M77.18 70.34c-.3-.54-.87-.88-1.5-.88h-8.56c-.62 0-1.18.33-1.49.87-.3.54-.3 1.2.02 1.73l3.58 5.97H30.71l17.35-29.97c.29-.5.31-1.11.05-1.62l-3.42-6.85c-.28-.57-.85-.93-1.48-.95-.64-.03-1.22.32-1.53.86L27.99 63.42l-13.7 22.26c-.33.53-.34 1.19-.04 1.73.3.54.88.88 1.49.88h68.5c.61 0 1.17-.32 1.48-.84.31-.52.32-1.17.02-1.7l-8.56-15.41zM18.82 84.87l12.12-19.7 12.11-21.19 1.58 3.16-18.37 31.73c-.31.53-.31 1.18 0 1.71.3.53.87.86 1.48.86h44.52c.62 0 1.19-.33 1.49-.87.3-.54.29-1.2-.02-1.73l-3.58-5.97h4.53l6.66 11.99H18.82z"></path></g></svg></svg> <defs><filter id="colors4826880034"><feColorMatrix type="matrix" values="0 0 0 0 0.25390625  0 0 0 0 0.71875  0 0 0 0 0.51171875  0 0 0 1 0" class="icon-fecolormatrix"></feColorMatrix></filter> <filter id="colorsf5066821654"><feColorMatrix type="matrix" values="0 0 0 0 0.99609375  0 0 0 0 0.99609375  0 0 0 0 0.99609375  0 0 0 1 0" class="icon-fecolormatrix"></feColorMatrix></filter> <filter id="colorsb9259348023"><feColorMatrix type="matrix" values="0 0 0 0 0  0 0 0 0 0  0 0 0 0 0  0 0 0 1 0" class="icon-fecolormatrix"></feColorMatrix></filter></defs></g></g> <g transform="translate(67,7.373727798461914)"><g data-gra="path-name" fill-rule="" class="tp-name iconsvg-namesvg"><g transform="scale(1)"><g><path d="M13.43 0.38Q10.2 0.38 7.32-0.48 4.45-1.34 2.64-2.81L2.64-2.81Q1.68-3.52 1.68-4.83L1.68-4.83Q1.68-5.71 2.2-6.36 2.73-7.01 3.44-7.01L3.44-7.01Q4.2-7.01 5.16-6.42L5.16-6.42Q6.97-5.12 8.94-4.53 10.91-3.94 13.3-3.94L13.3-3.94Q16.36-3.94 18-5.01 19.64-6.08 19.64-8.14L19.64-8.14Q19.64-9.73 18.1-10.59 16.57-11.45 13.01-12.25L13.01-12.25Q9.31-13.05 7.01-14.1 4.7-15.15 3.52-16.78 2.35-18.42 2.35-20.94L2.35-20.94Q2.35-23.54 3.82-25.59 5.29-27.65 7.91-28.8 10.53-29.96 13.8-29.96L13.8-29.96Q19.8-29.96 23.58-26.77L23.58-26.77Q24.13-26.31 24.36-25.87 24.59-25.43 24.59-24.76L24.59-24.76Q24.59-23.87 24.06-23.22 23.54-22.57 22.83-22.57L22.83-22.57Q22.41-22.57 22.05-22.7 21.69-22.83 21.1-23.16L21.1-23.16Q19.38-24.42 17.77-25.03 16.15-25.64 13.8-25.64L13.8-25.64Q10.95-25.64 9.29-24.48 7.64-23.33 7.64-21.27L7.64-21.27Q7.64-19.55 9.1-18.63 10.57-17.71 14.1-16.91L14.1-16.91Q17.83-16.07 20.16-15.04 22.49-14.01 23.73-12.42 24.97-10.83 24.97-8.43L24.97-8.43Q24.97-5.83 23.52-3.84 22.07-1.85 19.45-0.73 16.83 0.38 13.43 0.38L13.43 0.38ZM38.39-21.02Q42.67-21.02 44.75-18.9 46.83-16.78 46.83-12.46L46.83-12.46 46.83-2.22Q46.83-1.09 46.15-0.44 45.48 0.21 44.31 0.21L44.31 0.21Q43.22 0.21 42.52-0.46 41.83-1.13 41.83-2.22L41.83-2.22 41.83-3.15Q41.12-1.51 39.59-0.59 38.06 0.34 36.04 0.34L36.04 0.34Q33.99 0.34 32.31-0.5 30.63-1.34 29.66-2.81 28.7-4.28 28.7-6.08L28.7-6.08Q28.7-8.35 29.85-9.65 31.01-10.95 33.61-11.54 36.21-12.13 40.78-12.13L40.78-12.13 41.83-12.13 41.83-13.09Q41.83-15.15 40.95-16.09 40.07-17.03 38.1-17.03L38.1-17.03Q36.88-17.03 35.62-16.68 34.36-16.32 32.64-15.65L32.64-15.65Q31.55-15.1 31.05-15.1L31.05-15.1Q30.29-15.1 29.81-15.65 29.33-16.2 29.33-17.08L29.33-17.08Q29.33-17.79 29.69-18.31 30.04-18.84 30.88-19.3L30.88-19.3Q32.35-20.1 34.38-20.56 36.42-21.02 38.39-21.02L38.39-21.02ZM37.09-3.44Q39.19-3.44 40.51-4.85 41.83-6.25 41.83-8.48L41.83-8.48 41.83-9.36 41.08-9.36Q38.27-9.36 36.71-9.1 35.16-8.85 34.49-8.22 33.82-7.59 33.82-6.5L33.82-6.5Q33.82-5.16 34.76-4.3 35.71-3.44 37.09-3.44L37.09-3.44ZM54.76 0.25Q53.62 0.25 52.89-0.4 52.15-1.05 52.15-2.27L52.15-2.27 52.15-27.31Q52.15-28.53 52.89-29.16 53.62-29.79 54.76-29.79L54.76-29.79Q55.89-29.79 56.64-29.16 57.4-28.53 57.4-27.31L57.4-27.31 57.4-2.27Q57.4-1.05 56.64-0.4 55.89 0.25 54.76 0.25L54.76 0.25ZM65.41 0.25Q64.28 0.25 63.55-0.4 62.81-1.05 62.81-2.27L62.81-2.27 62.81-18.46Q62.81-19.68 63.55-20.31 64.28-20.94 65.41-20.94L65.41-20.94Q66.55-20.94 67.3-20.31 68.06-19.68 68.06-18.46L68.06-18.46 68.06-2.27Q68.06-1.05 67.3-0.4 66.55 0.25 65.41 0.25L65.41 0.25ZM65.41-24.67Q63.99-24.67 63.15-25.45 62.31-26.22 62.31-27.48L62.31-27.48Q62.31-28.74 63.15-29.5 63.99-30.25 65.41-30.25L65.41-30.25Q66.8-30.25 67.66-29.5 68.52-28.74 68.52-27.48L68.52-27.48Q68.52-26.22 67.68-25.45 66.84-24.67 65.41-24.67L65.41-24.67ZM80.9 0.34Q76.32 0.34 73.51-1.47L73.51-1.47Q72.17-2.27 72.17-3.73L72.17-3.73Q72.17-4.57 72.63-5.1 73.09-5.62 73.76-5.62L73.76-5.62Q74.48-5.62 75.73-4.95L75.73-4.95Q77.08-4.32 78.19-3.99 79.3-3.65 81.02-3.65L81.02-3.65Q82.78-3.65 83.77-4.24 84.76-4.83 84.76-5.87L84.76-5.87Q84.76-6.59 84.36-7.01 83.96-7.43 82.93-7.78 81.9-8.14 79.8-8.6L79.8-8.6Q76.07-9.36 74.45-10.74 72.84-12.13 72.84-14.56L72.84-14.56Q72.84-16.41 73.93-17.9 75.02-19.38 76.93-20.2 78.84-21.02 81.27-21.02L81.27-21.02Q83.03-21.02 84.67-20.58 86.31-20.14 87.61-19.3L87.61-19.3Q88.95-18.46 88.95-17.08L88.95-17.08Q88.95-16.24 88.49-15.67 88.03-15.1 87.36-15.1L87.36-15.1Q86.9-15.1 86.45-15.29 86.01-15.48 85.34-15.86L85.34-15.86Q84.13-16.49 83.24-16.8 82.36-17.12 81.06-17.12L81.06-17.12Q79.51-17.12 78.61-16.49 77.71-15.86 77.71-14.77L77.71-14.77Q77.71-13.72 78.63-13.17 79.55-12.63 82.2-12.08L82.2-12.08Q85.01-11.5 86.6-10.74 88.2-9.99 88.89-8.85 89.58-7.72 89.58-5.96L89.58-5.96Q89.58-3.1 87.21-1.38 84.84 0.34 80.9 0.34L80.9 0.34ZM105.61-21.02Q108.29-21.02 110.35-19.72 112.41-18.42 113.56-16.03 114.71-13.64 114.71-10.45L114.71-10.45Q114.71-7.26 113.56-4.8 112.41-2.35 110.33-1.01 108.25 0.34 105.61 0.34L105.61 0.34Q103.38 0.34 101.64-0.63 99.9-1.59 98.98-3.31L98.98-3.31 98.98-2.27Q98.98-1.13 98.27-0.46 97.55 0.21 96.38 0.21L96.38 0.21Q95.2 0.21 94.51-0.46 93.82-1.13 93.82-2.27L93.82-2.27 93.82-27.36Q93.82-28.45 94.55-29.12 95.29-29.79 96.46-29.79L96.46-29.79Q97.64-29.79 98.35-29.16 99.06-28.53 99.06-27.44L99.06-27.44 99.06-17.54Q99.99-19.22 101.71-20.12 103.43-21.02 105.61-21.02L105.61-21.02ZM104.22-3.73Q106.7-3.73 108.08-5.5 109.47-7.26 109.47-10.45L109.47-10.45Q109.47-13.59 108.1-15.27 106.74-16.95 104.22-16.95L104.22-16.95Q101.71-16.95 100.34-15.25 98.98-13.55 98.98-10.36L98.98-10.36Q98.98-7.17 100.34-5.45 101.71-3.73 104.22-3.73L104.22-3.73ZM135.23-20.94Q136.45-20.94 137.16-20.27 137.87-19.59 137.87-18.46L137.87-18.46 137.87-2.18Q137.87-1.09 137.14-0.42 136.41 0.25 135.23 0.25L135.23 0.25Q134.1 0.25 133.43-0.38 132.76-1.01 132.76-2.1L132.76-2.1 132.76-3.15Q131.79-1.47 130.15-0.57 128.52 0.34 126.46 0.34L126.46 0.34Q118.91 0.34 118.91-8.14L118.91-8.14 118.91-18.46Q118.91-19.59 119.62-20.27 120.34-20.94 121.51-20.94L121.51-20.94Q122.73-20.94 123.44-20.27 124.15-19.59 124.15-18.46L124.15-18.46 124.15-8.1Q124.15-5.92 125.03-4.87 125.92-3.82 127.8-3.82L127.8-3.82Q129.99-3.82 131.31-5.27 132.63-6.71 132.63-9.1L132.63-9.1 132.63-18.46Q132.63-19.59 133.34-20.27 134.06-20.94 135.23-20.94L135.23-20.94ZM154.78-20.94Q155.87-21.02 156.5-20.48 157.13-19.93 157.13-18.84L157.13-18.84Q157.13-17.71 156.59-17.16 156.04-16.62 154.62-16.45L154.62-16.45 153.36-16.32Q150.88-16.07 149.73-14.64 148.57-13.22 148.57-11.08L148.57-11.08 148.57-2.27Q148.57-1.05 147.82-0.4 147.06 0.25 145.93 0.25L145.93 0.25Q144.8 0.25 144.06-0.4 143.33-1.05 143.33-2.27L143.33-2.27 143.33-18.5Q143.33-19.68 144.06-20.31 144.8-20.94 145.89-20.94L145.89-20.94Q146.98-20.94 147.65-20.33 148.32-19.72 148.32-18.59L148.32-18.59 148.32-16.91Q149.12-18.76 150.69-19.76 152.27-20.77 154.2-20.9L154.2-20.9 154.78-20.94ZM174.97-19.43Q175.3-20.18 175.87-20.54 176.43-20.9 177.1-20.9L177.1-20.9Q178.07-20.9 178.85-20.24 179.62-19.59 179.62-18.63L179.62-18.63Q179.62-18.17 179.37-17.66L179.37-17.66 167.92 6.34Q167.2 7.76 165.69 7.76L165.69 7.76Q164.73 7.76 163.99 7.15 163.26 6.55 163.26 5.62L163.26 5.62Q163.26 5.16 163.51 4.57L163.51 4.57 166.36-1.43 158.56-17.66Q158.35-18.08 158.35-18.63L158.35-18.63Q158.35-19.59 159.17-20.27 159.99-20.94 161.03-20.94L161.03-20.94Q161.75-20.94 162.34-20.58 162.92-20.22 163.26-19.47L163.26-19.47 169.13-6.5 174.97-19.43Z" transform="translate(-1.6800000667572021, 30.25)"></path></g> <!----> <!----> <!----> <!----> <!----> <!----> <!----></g></g> <!----></g></g><defs v-gra="od"></defs></svg>